<svg width="32" height="33" viewBox="0 0 32 33" fill="none" xmlns="http://www.w3.org/2000/svg">
<path d="M0 16.3334V27.3334C0 30.0948 2.23858 32.3334 5 32.3334H16H27C29.7614 32.3334 32 30.0948 32 27.3334V16.3334V5.33337C32 2.57195 29.7614 0.333375 27 0.333375H16H5C2.23858 0.333375 0 2.57195 0 5.33337V16.3334ZM21.605 8.80837C22.895 10.1834 23.725 11.0634 25.075 12.4834C25.345 12.7734 25.76 13.2084 25.995 13.4584C26.23 13.7034 26.61 14.1084 26.85 14.3534C27.085 14.5984 27.24 14.7784 27.195 14.7534C27.12 14.7134 26.095 13.8484 24.875 12.8084C22.95 11.1534 20.2 8.83337 20.165 8.83337C20.12 8.83337 19.87 9.04337 18.145 10.5384C17.555 11.0484 16.795 11.7084 16.45 12.0034C12.825 15.1384 13.025 14.9684 13.345 14.6084C13.47 14.4684 13.84 14.0634 14.17 13.7034C14.505 13.3484 15.01 12.7984 15.3 12.4834C16.14 11.5684 16.455 11.2334 16.805 10.8584C16.985 10.6684 17.66 9.93337 18.3 9.23337C18.945 8.53337 19.585 7.83837 19.72 7.69337C19.86 7.54337 19.995 7.39337 20.015 7.35337C20.04 7.30837 20.09 7.28337 20.125 7.29337C20.165 7.30337 20.83 7.98337 21.605 8.80837ZM16.495 11.0684C16.315 11.2584 15.735 11.8684 15.2 12.4334C14.195 13.4934 13.59 14.1284 12.95 14.7984V14.7984C12.7462 15.0077 12.4085 15.0032 12.2102 14.7887L11.905 14.4584C11.54 14.0634 11.19 13.6834 11.13 13.6234C10.75 13.2284 8.5 10.7784 8.5 10.7584C8.5 10.7434 10.375 10.7334 12.66 10.7334H16.3533C16.5278 10.7334 16.6165 10.9431 16.495 11.0684V11.0684ZM8.925 11.3434C9.2 11.6484 9.985 12.5084 10.67 13.2534C11.355 13.9984 11.985 14.6834 12.07 14.7784C12.295 15.0234 12.16 14.9184 10.825 13.8334C8.88 12.2434 8.435 11.8834 8.4 11.8834C8.37 11.8834 8.065 12.1284 5.875 13.9134C5.135 14.5184 4.49 15.0334 4.45 15.0584C4.41 15.0784 4.51 14.9584 4.675 14.7784C5.2 14.2134 5.615 13.7684 6.03 13.3334C6.25 13.0984 6.505 12.8284 6.59 12.7334C7.02334 12.2546 7.58891 11.6417 7.97171 11.2343C8.25163 10.9363 8.55163 10.9337 8.82724 11.2356C8.85903 11.2704 8.89172 11.3065 8.925 11.3434ZM19.95 12.7084V12.7084C19.95 12.9431 19.7597 13.1334 19.525 13.1334V13.1334V13.1334C19.2903 13.1334 19.1 12.9431 19.1 12.7084V12.7084V12.7084C19.1 12.4737 19.2903 12.2834 19.525 12.2834V12.2834V12.2834C19.7597 12.2834 19.95 12.4737 19.95 12.7084V12.7084ZM20.9 12.7084V12.7084C20.9 12.9431 20.7097 13.1334 20.475 13.1334V13.1334V13.1334C20.2403 13.1334 20.05 12.9431 20.05 12.7084V12.7084V12.7084C20.05 12.4737 20.2403 12.2834 20.475 12.2834V12.2834V12.2834C20.7097 12.2834 20.9 12.4737 20.9 12.7084V12.7084ZM19.94 13.6984L19.9402 13.7036C19.9483 13.9385 19.76 14.1334 19.525 14.1334V14.1334V14.1334C19.2903 14.1334 19.1 13.9431 19.1 13.7084V13.7084V13.6037C19.1 13.4272 19.2387 13.2818 19.415 13.2734V13.2734C19.97 13.2484 19.925 13.2084 19.94 13.6984ZM20.89 13.7034V13.7034C20.8982 13.9382 20.71 14.1334 20.475 14.1334V14.1334H20.47C20.238 14.1334 20.05 13.9453 20.05 13.7134V13.7134C20.05 13.2284 20.03 13.2434 20.55 13.2634V13.2634C20.7336 13.2718 20.88 13.4198 20.8865 13.6035L20.89 13.7034ZM8.24 14.1384L8.2386 14.1588C8.23095 14.2712 8.13759 14.3584 8.025 14.3584V14.3584V14.3584C7.91254 14.3584 7.81942 14.271 7.81226 14.1588L7.81 14.1234L7.80714 14.0786C7.80041 13.9731 7.87961 13.8817 7.985 13.8734V13.8734C8.09 13.8634 8.195 13.8734 8.215 13.8884C8.24 13.9034 8.25 14.0184 8.24 14.1384ZM8.84 14.1184L8.83903 14.1338C8.83115 14.26 8.72647 14.3584 8.6 14.3584V14.3584V14.3584C8.47353 14.3584 8.36885 14.26 8.36096 14.1338L8.36 14.1184V14.1184C8.35187 13.9911 8.45293 13.8834 8.58048 13.8834H8.6H8.61952C8.74707 13.8834 8.84812 13.9911 8.84 14.1184V14.1184ZM9.915 15.3684C9.935 15.9684 9.95 16.8234 9.95 17.2634V17.9095C9.95 18.0024 10.0144 18.0829 10.105 18.1034V18.1034C10.19 18.1184 13.22 18.1334 16.83 18.1334H23.2515C23.3466 18.1334 23.4378 18.0956 23.505 18.0284V18.0284C23.56 17.9734 23.595 17.8934 23.58 17.8484C23.565 17.8084 23.55 17.7434 23.55 17.7084C23.55 17.6734 23.51 17.6284 23.465 17.6084C23.415 17.5884 20.9 17.5734 17.875 17.5834C12.745 17.5884 10.9 17.5634 10.9 17.4884C10.9 17.4684 11.03 17.3784 11.19 17.2884C12.065 16.7784 13.245 15.9334 13.73 15.4684C13.89 15.3184 14 15.2434 14.02 15.2784C14.04 15.3084 14.02 15.3834 13.975 15.4434C13.81 15.6884 13.205 16.2584 12.775 16.5834C12.25 16.9834 12.1 17.1084 12.1 17.1534C12.1 17.1734 14.635 17.1834 17.74 17.1734C23.91 17.1584 23.545 17.1434 23.77 17.4484C23.855 17.5684 23.875 17.6634 23.875 18.0134C23.875 18.3234 23.855 18.4484 23.805 18.4784C23.72 18.5334 10.635 18.5534 10.02 18.5034V18.5034C9.7826 18.4836 9.6 18.2851 9.6 18.0469V16.8184C9.6 15.2584 9.595 15.1584 9.5 14.9634V14.9634C9.43674 14.8399 9.4561 14.6902 9.54868 14.5868L9.61 14.5184C9.73 14.3884 9.84 14.2834 9.855 14.2834C9.87 14.2834 9.9 14.7734 9.915 15.3684ZM8.075 14.4634C8.16815 14.4718 8.24043 14.5196 8.24287 14.6131C8.2437 14.6449 8.24291 14.6806 8.24 14.7184L8.23813 14.7482C8.23061 14.8686 8.13525 14.9648 8.015 14.9734V14.9734V14.9734C7.89876 14.9815 7.8 14.8894 7.8 14.7729V14.7384C7.8 14.4784 7.84 14.4384 8.075 14.4634V14.4634ZM8.84 14.7184L8.83903 14.7338C8.83115 14.86 8.72647 14.9584 8.6 14.9584V14.9584V14.9584C8.47353 14.9584 8.36885 14.86 8.36096 14.7338L8.36 14.7184V14.7184C8.35187 14.5911 8.45293 14.4834 8.58048 14.4834H8.6H8.61952C8.74707 14.4834 8.84812 14.5911 8.84 14.7184V14.7184ZM7 16.6334C7 16.7734 6.985 16.7834 6.825 16.7834C6.665 16.7834 6.65 16.7734 6.65 16.6334C6.65 16.4934 6.665 16.4834 6.825 16.4834C6.985 16.4834 7 16.4934 7 16.6334ZM8.7 17.5334V17.7184C8.7 18.1685 8.33511 18.5334 7.885 18.5334V18.5334C7.435 18.5334 6.355 18.5184 5.485 18.4984C3.765 18.4634 3.71 18.4534 4.09 18.2134C4.195 18.1484 4.32 18.0334 4.365 17.9634C4.475 17.8034 4.56 17.7984 4.765 17.9534C4.855 18.0184 5.025 18.0884 5.14 18.1084C5.26 18.1284 6.04 18.1284 6.865 18.1084L8.03875 18.0812C8.22075 18.0769 8.36124 17.9197 8.345 17.7384V17.7384C8.33 17.5434 8.28 17.3434 8.22 17.2484L8.1949 17.2048C8.15537 17.1361 8.17496 17.0486 8.24 17.0034V17.0034C8.305 16.9634 8.41 16.8384 8.48 16.7284C8.545 16.6234 8.625 16.5334 8.65 16.5334C8.68 16.5334 8.7 16.9084 8.7 17.5334ZM27.95 17.5584V17.5584C27.95 18.0982 27.5149 18.5372 26.975 18.542L26.815 18.5434L26.0378 18.5536C25.8259 18.5564 25.6413 18.699 25.585 18.9034V18.9034C25.455 19.4084 25.27 19.6334 25.11 19.4734C25.07 19.4334 25.07 19.3884 25.125 19.2884C25.375 18.8234 25.42 18.0984 25.245 17.4934L25.2383 17.4716C25.1749 17.2641 25.2336 17.0387 25.39 16.8884V16.8884V16.8884C25.4874 16.7948 25.6495 16.8619 25.6523 16.9969L25.66 17.3734V17.3734C25.6684 17.7835 26 18.1133 26.4101 18.1195L26.67 18.1234L27.3685 18.1304C27.5266 18.132 27.651 17.9957 27.635 17.8384V17.8384C27.62 17.6734 27.57 17.4384 27.525 17.3134V17.3134C27.4731 17.1759 27.5048 17.0209 27.6066 16.9149L27.68 16.8384C27.815 16.6984 27.93 16.5834 27.94 16.5834C27.945 16.5834 27.95 17.0234 27.95 17.5584ZM6.34 16.8684C6.33 16.9834 6.3 17.0134 6.165 17.0234C6.01 17.0384 6 17.0284 6 16.8884C6 16.7434 6.015 16.7334 6.18 16.7334C6.345 16.7334 6.355 16.7434 6.34 16.8684ZM27.64 19.3934C27.655 19.5284 27.65 19.5334 27.43 19.5334C27.205 19.5334 27.2 19.5284 27.2 19.3784C27.2 19.2334 27.205 19.2284 27.415 19.2434C27.605 19.2584 27.625 19.2734 27.64 19.3934ZM21.365 20.6834C21.545 20.7734 21.575 20.7734 21.615 20.7084C21.71 20.5384 21.79 20.6384 21.895 21.0634C21.955 21.2984 21.99 21.5084 21.975 21.5384C21.915 21.6334 21.85 21.5784 21.725 21.3384C21.325 20.5434 20.385 20.6234 20.045 21.4834C20.01 21.5784 19.98 21.8184 19.98 22.0084C19.98 23.1134 20.98 23.6134 21.735 22.8784C21.9 22.7234 21.965 22.6884 22.03 22.7234C22.105 22.7634 22.09 22.7984 21.91 22.9934C21.355 23.5934 20.45 23.6184 19.945 23.0434C19.44 22.4684 19.45 21.5334 19.965 20.9884C20.325 20.6084 20.935 20.4784 21.365 20.6834ZM24.33 20.6784C24.595 20.7984 24.86 21.0634 25 21.3584C25.16 21.6884 25.16 22.3034 25 22.6734C24.875 22.9584 24.59 23.2484 24.305 23.3734C24.05 23.4834 23.48 23.4734 23.23 23.3584C22.98 23.2384 22.73 22.9884 22.59 22.7184C22.5 22.5434 22.48 22.4234 22.475 22.0334C22.475 21.5984 22.49 21.5334 22.625 21.2884C22.795 20.9834 23.035 20.7634 23.325 20.6634C23.615 20.5584 24.085 20.5684 24.33 20.6784ZM5 20.7084C5 20.7534 4.955 20.7834 4.875 20.7834C4.805 20.7834 4.75 20.8084 4.75 20.8384C4.75 20.9084 5.295 21.6834 5.34 21.6834C5.39 21.6784 5.95 20.9084 5.95 20.8384C5.95 20.8084 5.895 20.7834 5.825 20.7834C5.745 20.7834 5.7 20.7534 5.7 20.7084C5.7 20.6484 5.78 20.6334 6.125 20.6334C6.47 20.6334 6.55 20.6484 6.55 20.7084C6.55 20.7534 6.505 20.7834 6.43 20.7834C6.33 20.7834 6.215 20.8984 5.88 21.3384L5.70131 21.5717C5.5549 21.7629 5.55032 22.0272 5.69 22.2234V22.2234C5.82 22.4084 6.015 22.6884 6.125 22.8434C6.37 23.1884 6.585 23.3234 6.785 23.2534C6.91 23.2084 6.96 23.1034 7.36 21.9834C7.6 21.3084 7.8 20.7284 7.8 20.6934C7.8 20.6484 7.86 20.6334 7.98 20.6434V20.6434C8.08952 20.6525 8.18346 20.7251 8.21993 20.8288L8.575 21.8384C9.04 23.1684 9.06 23.2134 9.2 23.2584C9.255 23.2734 9.3 23.3234 9.3 23.3634C9.3 23.4234 9.22 23.4334 8.84 23.4234C8.53 23.4134 8.375 23.3884 8.36 23.3434C8.35 23.3134 8.375 23.2834 8.41 23.2834C8.45 23.2834 8.52 23.2534 8.565 23.2184C8.645 23.1634 8.645 23.1434 8.57 22.9084C8.53 22.7684 8.47 22.5934 8.44 22.5184V22.5184C8.40702 22.4344 8.32482 22.3803 8.23466 22.3831L7.905 22.3934L7.74437 22.3984C7.55141 22.4044 7.38146 22.5271 7.315 22.7084V22.7084C7.165 23.1134 7.17 23.2234 7.325 23.2634C7.395 23.2784 7.45 23.3234 7.45 23.3634C7.45 23.4184 7.285 23.4334 6.55 23.4334C5.785 23.4334 5.65 23.4234 5.65 23.3584C5.65 23.3184 5.695 23.2834 5.75 23.2834C5.95 23.2834 5.91 23.1384 5.57 22.6584C5.385 22.3984 5.225 22.1834 5.22 22.1834C5.21 22.1834 5.035 22.4034 4.83 22.6684C4.545 23.0384 4.47 23.1684 4.51 23.2184C4.54 23.2534 4.605 23.2834 4.66 23.2834C4.715 23.2834 4.75 23.3084 4.74 23.3434C4.725 23.3884 4.58 23.4134 4.31 23.4234C3.94 23.4384 3.9 23.4284 3.9 23.3484C3.9 23.2884 3.94 23.2534 4.005 23.2484C4.14 23.2384 4.1 23.2734 4.645 22.5834C5.165 21.9234 5.17 22.0634 4.585 21.2834C4.345 20.9684 4.185 20.8034 4.115 20.7934C4.05 20.7834 4 20.7434 4 20.7034C4 20.6484 4.1 20.6334 4.5 20.6334C4.91 20.6334 5 20.6484 5 20.7084ZM10.895 21.6684L11.0367 21.9151C11.1595 22.1289 11.4858 22.0448 11.49 21.7984V21.7984C11.505 20.8884 11.485 20.7834 11.295 20.7834C11.24 20.7834 11.2 20.7484 11.2 20.7084C11.2 20.6484 11.28 20.6334 11.625 20.6334C11.97 20.6334 12.05 20.6484 12.05 20.7084C12.05 20.7484 12.01 20.7834 11.955 20.7834C11.77 20.7834 11.75 20.8834 11.74 22.1634C11.725 23.3884 11.725 23.4084 11.62 23.4234C11.525 23.4384 11.41 23.2584 10.795 22.1734L10.5935 21.8208C10.4493 21.5684 10.0642 21.6677 10.06 21.9584V21.9584C10.055 22.5384 10.06 23.0584 10.075 23.1134C10.09 23.1734 10.155 23.2384 10.225 23.2534C10.295 23.2734 10.35 23.3184 10.35 23.3584C10.35 23.4184 10.265 23.4334 9.925 23.4334C9.615 23.4334 9.5 23.4184 9.5 23.3684C9.5 23.3334 9.565 23.2784 9.65 23.2484V23.2484C9.73751 23.2152 9.79587 23.1319 9.79718 23.0383L9.81 22.1284C9.82 21.5384 9.81 21.0034 9.795 20.9334C9.775 20.8434 9.73 20.8034 9.635 20.7934C9.555 20.7834 9.5 20.7434 9.5 20.7034C9.5 20.6434 9.575 20.6334 9.905 20.6434V20.6434C10.1571 20.6527 10.3867 20.7908 10.5131 21.0091L10.895 21.6684ZM15.41 20.6834C15.71 20.7684 16.01 21.0284 16.165 21.3384C16.525 22.0634 16.315 22.9134 15.69 23.2634C15.43 23.4034 15.41 23.4084 14.54 23.4234C13.75 23.4434 13.65 23.4334 13.65 23.3634C13.65 23.3184 13.69 23.2834 13.745 23.2834C13.94 23.2834 13.95 23.1934 13.94 21.9784L13.9267 20.9442C13.9257 20.8666 13.8671 20.8019 13.79 20.7934V20.7934C13.71 20.7834 13.65 20.7484 13.65 20.7034C13.65 20.6434 13.785 20.6334 14.44 20.6334C14.87 20.6334 15.31 20.6584 15.41 20.6834ZM18.995 20.9434C19.055 21.1134 19.1 21.2834 19.1 21.3184C19.1 21.4484 18.975 21.3784 18.865 21.1884C18.7 20.8984 18.5 20.8284 17.915 20.8434V20.8434C17.642 20.8517 17.425 21.0755 17.425 21.3486V21.3584V21.6877C17.425 21.7843 17.4988 21.8649 17.595 21.8734V21.8734C17.94 21.9084 18.15 21.7784 18.15 21.5284C18.15 21.4184 18.175 21.3834 18.25 21.3834C18.345 21.3834 18.35 21.4184 18.35 21.9884C18.35 22.5334 18.34 22.5884 18.265 22.5734C18.205 22.5634 18.165 22.4934 18.145 22.3634C18.1 22.1034 18.055 22.0784 17.55 22.0684C17.425 22.0634 17.425 22.0634 17.41 22.5784C17.4 22.9134 17.415 23.1184 17.455 23.1634C17.52 23.2434 18.06 23.2584 18.37 23.1834C18.67 23.1134 18.81 22.9984 19.075 22.5634C19.11 22.5134 19.15 22.4984 19.195 22.5284C19.25 22.5634 19.235 22.6484 19.115 22.9884V22.9884C19.028 23.2404 18.7923 23.4108 18.5257 23.4144L17.86 23.4234C16.895 23.4334 16.75 23.4234 16.75 23.3584C16.75 23.3184 16.795 23.2834 16.845 23.2834C17.08 23.2834 17.1 23.1984 17.1 22.0534C17.1 21.4084 17.08 20.9384 17.05 20.8784C17.02 20.8234 16.945 20.7834 16.875 20.7834C16.795 20.7834 16.75 20.7534 16.75 20.7084C16.75 20.6434 16.9 20.6334 17.82 20.6334H18.5627C18.7583 20.6334 18.9322 20.7581 18.995 20.9434V20.9434ZM27.565 20.7484C28.145 21.1284 27.91 21.9484 27.19 22.0634C27.085 22.0834 27 22.1034 27 22.1134C27 22.1234 27.18 22.3634 27.4 22.6534C27.755 23.1134 27.935 23.2784 28.065 23.2434C28.085 23.2384 28.1 23.2784 28.1 23.3334C28.1 23.4234 28.065 23.4334 27.815 23.4334C27.55 23.4334 27.515 23.4184 27.425 23.2834C27.37 23.2034 27.155 22.8984 26.95 22.6134C26.59 22.1034 26.57 22.0884 26.39 22.0834V22.0834C26.2851 22.0834 26.2 22.1684 26.2 22.2734V22.5934C26.2 22.8784 26.22 23.1334 26.24 23.1684C26.26 23.1984 26.34 23.2434 26.415 23.2584C26.7 23.3334 26.52 23.4084 26.035 23.4234C25.625 23.4334 25.55 23.4234 25.55 23.3584C25.55 23.3184 25.595 23.2834 25.645 23.2834C25.87 23.2834 25.9 23.1284 25.9 22.0484C25.9 21.4934 25.88 20.9834 25.85 20.9134C25.815 20.8184 25.765 20.7834 25.675 20.7834C25.595 20.7834 25.55 20.7534 25.55 20.7034C25.55 20.6334 25.66 20.6284 26.49 20.6434C27.295 20.6584 27.45 20.6734 27.565 20.7484ZM9.5 24.5834C9.5 24.6084 9.385 24.6334 9.245 24.6334C9 24.6334 8.995 24.6384 9.01 24.7684C9.025 24.8934 9.05 24.9134 9.25 24.9384V24.9384C9.27983 24.9417 9.27983 24.9851 9.25 24.9884V24.9884C9.04 25.0084 9.025 25.0184 9.025 25.1584C9.025 25.3034 9.035 25.3084 9.275 25.3384C9.51 25.3634 9.515 25.3684 9.34 25.3834C8.885 25.4134 8.925 25.4484 8.91 25.0384C8.9 24.8334 8.905 24.6384 8.92 24.5984C8.95 24.5184 9.5 24.5034 9.5 24.5834ZM9.855 24.6934V24.6934C9.91378 24.7726 10.031 24.7764 10.0949 24.7012L10.11 24.6834C10.29 24.4634 10.35 24.5234 10.175 24.7534V24.7534C10.0913 24.861 10.0854 25.01 10.1604 25.1238L10.17 25.1384C10.34 25.3934 10.29 25.4684 10.105 25.2384V25.2384C10.0361 25.1542 9.90666 25.1564 9.84066 25.2428L9.825 25.2634C9.745 25.3684 9.67 25.4234 9.66 25.3934C9.65 25.3634 9.705 25.2534 9.78 25.1534C9.93 24.9634 9.93 24.9834 9.71 24.6434C9.6 24.4684 9.73 24.5134 9.855 24.6934ZM11.02 24.6134C11.065 24.6534 11.1 24.7134 11.1 24.7384C11.1 24.8134 11.015 24.7884 10.98 24.7084C10.945 24.6184 10.68 24.6084 10.615 24.6934C10.355 25.0284 10.68 25.5084 10.98 25.2334C11.145 25.0734 11.195 25.1434 11.035 25.3034C10.83 25.5084 10.595 25.4484 10.475 25.1634C10.39 24.9684 10.455 24.6684 10.59 24.5884C10.72 24.5134 10.935 24.5234 11.02 24.6134ZM11.4 24.9634V25.1234C11.4 25.2394 11.494 25.3334 11.61 25.3334V25.3334C11.885 25.3334 11.815 25.3934 11.525 25.4034V25.4034C11.4016 25.4061 11.3 25.3068 11.3 25.1833V24.9684C11.3 24.6884 11.32 24.5384 11.35 24.5584C11.38 24.5734 11.4 24.7584 11.4 24.9634ZM12.05 24.9034C12.05 25.2584 12.12 25.3634 12.32 25.3134C12.455 25.2784 12.495 25.1634 12.505 24.7834C12.505 24.5884 12.52 24.5384 12.55 24.6084C12.585 24.6984 12.575 25.0034 12.52 25.2684C12.49 25.4184 12.24 25.4684 12.075 25.3634C11.96 25.2884 11.95 25.2484 11.95 24.9034C11.95 24.6634 11.97 24.5384 12 24.5584C12.03 24.5734 12.05 24.7334 12.05 24.9034ZM13.255 24.5834C13.305 24.6134 13.35 24.6684 13.35 24.7084C13.35 24.8084 13.27 24.8034 13.23 24.7034C13.19 24.5984 12.88 24.6284 12.86 24.7434C12.85 24.7984 12.9 24.8434 13.035 24.8834C13.295 24.9684 13.35 25.0234 13.35 25.1884C13.35 25.4534 12.935 25.5134 12.78 25.2734C12.7 25.1434 12.79 25.0984 12.88 25.2234C12.965 25.3484 13.16 25.3684 13.25 25.2584C13.335 25.1584 13.245 25.0534 13.045 25.0084C12.845 24.9634 12.74 24.8484 12.78 24.7134C12.8 24.6584 12.84 24.5934 12.87 24.5734C12.95 24.5184 13.14 24.5234 13.255 24.5834ZM13.65 24.9584C13.65 25.2084 13.63 25.3834 13.6 25.3834C13.57 25.3834 13.55 25.2084 13.55 24.9584C13.55 24.7084 13.57 24.5334 13.6 24.5334C13.63 24.5334 13.65 24.7084 13.65 24.9584ZM14 24.9084V24.9084C14.0751 25.151 14.209 25.1316 14.292 24.8916C14.2947 24.8839 14.2973 24.8762 14.3 24.8684C14.36 24.6834 14.43 24.5334 14.455 24.5334C14.51 24.5334 14.495 24.6034 14.325 25.0584V25.0584C14.2355 25.2855 14.0477 25.2953 13.965 25.0656C13.9568 25.0428 13.9484 25.0187 13.94 24.9934C13.785 24.5684 13.78 24.5334 13.84 24.5334C13.865 24.5334 13.935 24.7034 14 24.9084ZM15.2 24.5834C15.2 24.6084 15.1 24.6334 14.975 24.6334C14.76 24.6334 14.75 24.6384 14.75 24.7834C14.75 24.9284 14.76 24.9334 14.99 24.9434L15.225 24.9534L14.99 24.9684C14.755 24.9884 14.75 24.9934 14.75 25.1634V25.1634C14.75 25.2583 14.825 25.3362 14.9199 25.3398L15.015 25.3434L15.275 25.3484L15.025 25.3784C14.89 25.3984 14.745 25.4034 14.715 25.3934C14.67 25.3784 14.65 25.2434 14.65 24.9534V24.8084C14.65 24.6565 14.7731 24.5334 14.925 24.5334V24.5334C15.075 24.5334 15.2 24.5534 15.2 24.5834ZM15.805 24.8184C15.9 25.2584 15.925 25.2634 16.02 24.8834C16.075 24.6834 16.14 24.5334 16.175 24.5334C16.215 24.5334 16.275 24.6784 16.325 24.8884C16.42 25.2734 16.47 25.2734 16.525 24.8834C16.555 24.6484 16.625 24.4884 16.67 24.5384C16.71 24.5784 16.48 25.4084 16.43 25.4084C16.405 25.4084 16.335 25.2434 16.28 25.0434C16.175 24.6434 16.145 24.6484 16.05 25.0934C15.98 25.4084 15.875 25.4784 15.82 25.2434C15.77 25.0134 15.695 24.7134 15.67 24.6184C15.655 24.5734 15.665 24.5334 15.695 24.5334C15.72 24.5334 15.77 24.6634 15.805 24.8184ZM17.26 24.9334C17.4 25.3034 17.435 25.6284 17.295 25.2934C17.24 25.1584 17.2 25.1334 17.065 25.1334C16.935 25.1334 16.885 25.1634 16.825 25.2884C16.69 25.5434 16.68 25.4084 16.8 25.0734C16.865 24.8984 16.935 24.7084 16.96 24.6434C17.025 24.4584 17.105 24.5334 17.26 24.9334ZM17.65 24.9634V25.1284C17.65 25.2416 17.7418 25.3334 17.855 25.3334V25.3334V25.3334C17.9847 25.3334 17.9758 25.4028 17.8461 25.3998C17.7876 25.3984 17.7121 25.3946 17.615 25.3884C17.57 25.3834 17.55 25.2634 17.55 24.9534C17.55 24.6834 17.57 24.5384 17.6 24.5584C17.63 24.5734 17.65 24.7584 17.65 24.9634ZM18.275 24.9484V25.082C18.275 25.2109 18.3719 25.3191 18.5 25.3334V25.3334L18.5504 25.3401C18.5759 25.3435 18.5755 25.3805 18.55 25.3834V25.3834C18.21 25.4334 18.2 25.4234 18.2 24.9484C18.2 24.7084 18.215 24.5334 18.235 24.5534C18.255 24.5734 18.275 24.7484 18.275 24.9484ZM19.375 24.6334C19.45 24.7134 19.46 24.7634 19.42 24.8734C19.38 24.9884 19.335 25.0134 19.15 25.0334C18.94 25.0584 18.925 25.0684 18.91 25.2184C18.9 25.3084 18.875 25.3834 18.855 25.3834C18.81 25.3834 18.79 24.6384 18.83 24.5734C18.845 24.5534 18.95 24.5334 19.07 24.5334C19.22 24.5334 19.31 24.5634 19.375 24.6334ZM20.01 24.9584C20.16 25.3684 20.175 25.5734 20.03 25.2934C19.96 25.1634 19.92 25.1334 19.78 25.1334C19.64 25.1334 19.605 25.1584 19.58 25.2584C19.56 25.3284 19.525 25.3834 19.5 25.3834C19.435 25.3834 19.435 25.3934 19.545 25.0784C19.71 24.6034 19.75 24.5234 19.805 24.5434C19.84 24.5534 19.93 24.7384 20.01 24.9584ZM20.805 24.5834C20.915 24.6434 20.935 24.8934 20.835 24.9734C20.8 25.0034 20.685 25.0334 20.575 25.0434C20.385 25.0584 20.375 25.0634 20.39 25.2184C20.4 25.3034 20.385 25.3884 20.355 25.4084C20.315 25.4284 20.3 25.2934 20.3 24.9884V24.7384C20.3 24.6252 20.3918 24.5334 20.505 24.5334V24.5334C20.615 24.5334 20.75 24.5584 20.805 24.5834ZM21.65 24.5834C21.65 24.6084 21.535 24.6334 21.395 24.6334C21.15 24.6334 21.145 24.6384 21.16 24.7684C21.175 24.8934 21.2 24.9134 21.4 24.9384V24.9384C21.4298 24.9417 21.4298 24.9851 21.4 24.9884V24.9884C21.19 25.0084 21.175 25.0184 21.175 25.1584C21.175 25.3034 21.185 25.3084 21.425 25.3384L21.675 25.3684L21.365 25.3734V25.3734C21.1927 25.3788 21.05 25.2406 21.05 25.0682V24.9584V24.8334C21.05 24.6677 21.1843 24.5334 21.35 24.5334V24.5334C21.515 24.5334 21.65 24.5534 21.65 24.5834ZM22.42 24.6384C22.5 24.7534 22.48 24.8734 22.365 24.9684C22.3 25.0184 22.305 25.0484 22.4 25.1834C22.46 25.2634 22.5 25.3634 22.485 25.3984C22.475 25.4284 22.405 25.3634 22.325 25.2434C22.215 25.0784 22.155 25.0334 22.045 25.0334C21.915 25.0334 21.9 25.0484 21.9 25.2084C21.9 25.3034 21.88 25.3834 21.855 25.3834C21.8317 25.3834 21.8195 25.0411 21.8242 24.7924C21.8273 24.6278 21.9304 24.5334 22.095 24.5334V24.5334C22.29 24.5334 22.36 24.5534 22.42 24.6384ZM23.17 24.6134C23.215 24.6534 23.25 24.7134 23.25 24.7384C23.25 24.8134 23.16 24.7884 23.11 24.7034C23.045 24.5884 22.775 24.6284 22.775 24.7534C22.775 24.8234 22.825 24.8634 22.95 24.8984C23.045 24.9234 23.155 24.9684 23.19 24.9984C23.295 25.0834 23.24 25.2984 23.09 25.3834C22.965 25.4484 22.935 25.4484 22.815 25.3834C22.735 25.3384 22.67 25.2584 22.66 25.2084C22.64 25.1134 22.65 25.1184 22.745 25.2184C22.86 25.3384 22.98 25.3634 23.09 25.2884C23.215 25.2134 23.13 25.0684 22.925 24.9984C22.645 24.9034 22.575 24.7634 22.73 24.6134C22.77 24.5684 22.87 24.5334 22.95 24.5334C23.03 24.5334 23.13 24.5684 23.17 24.6134ZM8.45 24.9334C8.45 25.0334 8.415 25.0334 6.225 25.0334C4.405 25.0334 4 25.0234 4 24.9684V24.9684C4 24.8962 4.07087 24.8613 4.14295 24.8577C4.43449 24.8433 5.28128 24.8334 6.26 24.8334C8.415 24.8334 8.45 24.8334 8.45 24.9334ZM28.1 24.9334C28.1 25.0334 28.065 25.0334 25.875 25.0334C23.685 25.0334 23.65 25.0334 23.65 24.9334C23.65 24.8334 23.685 24.8334 25.875 24.8334C28.065 24.8334 28.1 24.8334 28.1 24.9334Z" fill="black"/>
<path d="M23.3749 20.8984C22.9849 21.1184 22.8249 21.5134 22.8599 22.1684C22.8799 22.5134 22.9049 22.6184 23.0299 22.8184C23.3149 23.2834 23.8749 23.4184 24.2799 23.1084C24.9149 22.6234 24.8599 21.2034 24.1899 20.8534C23.9849 20.7484 23.6049 20.7684 23.3749 20.8984Z" fill="black"/>
<path d="M7.87496 21.0884C7.85996 21.1284 7.78496 21.3484 7.70496 21.5834C7.62496 21.8184 7.54496 22.0484 7.52496 22.0934C7.49496 22.1734 7.52996 22.1834 7.89496 22.1834C8.11996 22.1834 8.29996 22.1634 8.29996 22.1434C8.29996 22.0922 8.04901 21.35 7.95656 21.1141C7.93762 21.0658 7.89319 21.0398 7.87496 21.0884V21.0884Z" fill="black"/>
<path d="M14.3 22.0334V22.9384C14.3 23.1013 14.4321 23.2334 14.595 23.2334V23.2334C15 23.2334 15.38 23.1534 15.55 23.0334C15.86 22.8134 16.025 22.1534 15.9 21.6434C15.83 21.3534 15.585 21.0334 15.33 20.9134C15.215 20.8584 15.025 20.8334 14.73 20.8334V20.8334C14.4926 20.8334 14.3 21.0259 14.3 21.2634V22.0334Z" fill="black"/>
<path d="M26.2 21.3584V21.4034C26.2 21.6685 26.4149 21.8834 26.68 21.8834V21.8834C27.21 21.8834 27.315 21.8484 27.425 21.6334C27.545 21.3984 27.52 21.1684 27.355 20.9884C27.21 20.8334 27.205 20.8334 26.705 20.8334V20.8334C26.426 20.8334 26.2 21.0595 26.2 21.3384V21.3584Z" fill="black"/>
<path d="M16.96 24.8634C16.905 25.0484 16.965 25.1284 17.12 25.0684C17.18 25.0434 17.18 25.0034 17.14 24.8634C17.11 24.7634 17.07 24.6834 17.05 24.6834C17.03 24.6834 16.99 24.7634 16.96 24.8634Z" fill="black"/>
<path d="M18.9199 24.7034C18.8649 24.8534 18.9249 24.9584 19.0649 24.9634C19.2599 24.9684 19.3699 24.8784 19.3299 24.7434C19.2999 24.6584 19.2549 24.6334 19.1199 24.6334C19.0149 24.6334 18.9349 24.6634 18.9199 24.7034Z" fill="black"/>
<path d="M19.7101 24.8434C19.6451 25.0184 19.6651 25.0834 19.7951 25.0834C19.9251 25.0834 19.9501 25.0384 19.8851 24.8934C19.8001 24.6834 19.7751 24.6734 19.7101 24.8434Z" fill="black"/>
<path d="M20.3949 24.6534C20.3899 24.6684 20.3899 24.7284 20.3899 24.7834C20.3899 24.9684 20.3999 24.9834 20.5549 24.9634C20.7399 24.9434 20.8149 24.8734 20.7899 24.7534C20.7799 24.6834 20.7199 24.6534 20.5849 24.6434C20.4849 24.6334 20.3999 24.6384 20.3949 24.6534Z" fill="black"/>
<path d="M21.915 24.7684C21.93 24.8884 21.96 24.9134 22.1 24.9234C22.22 24.9384 22.29 24.9134 22.335 24.8534C22.43 24.7234 22.325 24.6334 22.09 24.6334C21.91 24.6334 21.9 24.6434 21.915 24.7684Z" fill="black"/>
</svg>
